{"title":"Naruto Shippuden 96 DVBrip xvid audio castellano","uid":6213474,"size":191834112,"categoryP":"video","categoryS":"tv_shows","magnet":"?xt=urn:btih:3d1c3d1b83c6af74ea5b829137a6b5f88580eaa6&amp;dn=Naruto+Shippuden+96+DVBrip+xvid+audio+castellano&amp;tr=udp%3A%2F%2Ftracker.openbittorrent.com%3A80&amp;tr=udp%3A%2F%2Fopen.demonii.com%3A1337&amp;tr=udp%3A%2F%2Ftracker.coppersurfer.tk%3A6969&amp;tr=udp%3A%2F%2Fexodus.desync.com%3A6969","seeders":0,"leechers":0,"uploader":null,"files":1,"time":1299074292,"description":"General\nFile size                        : 183 MiB\nDuration                         : 20mn 4s\nOverall bit rate                 : 1 274 Kbps\n\n\nVideo\nID                               : 0\nFormat                           : MPEG-4 Visual\nFormat profile                   : Advanced Simple@L5\nFormat settings, BVOP            : Yes\nFormat settings, QPel            : No\nFormat settings, GMC             : No warppoints\nFormat settings, Matrix          : Custom\nCodec ID                         : XVID\nCodec ID/Hint                    : XviD\nDuration                         : 20mn 4s\nBit rate                         : 1 139 Kbps\nWidth                            : 704 pixels\nHeight                           : 400 pixels\nDisplay aspect ratio             : 16:9\nFrame rate                       : 25.000 fps\nColor space                      : YUV\nChroma subsampling               : 4:2:0\nBit depth                        : 8 bits\nScan type                        : Progressive\nCompression mode                 : Lossy\nBits/(Pixel*Frame)               : 0.162\nStream size                      : 164 MiB (89%)\nWriting library                  : XviD 58\n\nAudio\nID                               : 1\nFormat                           : MPEG Audio\nFormat version                   : Version 1\nFormat profile                   : Layer 2\nCodec ID                         : 50\nDuration                         : 20mn 4s\nBit rate mode                    : Constant\nBit rate                         : 128 Kbps\nChannel(s)                       : 2 channels\nSampling rate                    : 48.0 KHz\nCompression mode                 : Lossy\nStream size                      : 18.4 MiB (10%)\nAlignment                        : Aligned on interleaves\nInterleave, duration             : 80 ms (2.00 video frames)\nInterleave, preload duration     : 504 ms\n\n","torrent":{"xt":"urn:btih:3d1c3d1b83c6af74ea5b829137a6b5f88580eaa6","amp;dn":"Naruto+Shippuden+96+DVBrip+xvid+audio+castellano","amp;tr":["udp%3A%2F%2Ftracker.openbittorrent.com%3A80","udp%3A%2F%2Fopen.demonii.com%3A1337","udp%3A%2F%2Ftracker.coppersurfer.tk%3A6969","udp%3A%2F%2Fexodus.desync.com%3A6969"],"infoHash":"3d1c3d1b83c6af74ea5b829137a6b5f88580eaa6","infoHashBuffer":{"type":"Buffer","data":[61,28,61,27,131,198,175,116,234,91,130,145,55,166,181,248,133,128,234,166]},"announce":[],"urlList":[]}}